<?xml version="1.0" encoding="utf-8"?>
<!-- Generator: Adobe Illustrator 22.0.0, SVG Export Plug-In . SVG Version: 6.00 Build 0)  -->
<svg version="1.1" id="Calque_1" xmlns="http://www.w3.org/2000/svg" xmlns:xlink="http://www.w3.org/1999/xlink" x="0px" y="0px"
	 viewBox="0 0 1600 1000" style="enable-background:new 0 0 1600 1000;" xml:space="preserve">
<style type="text/css">
	.st0{clip-path:url(#SVGID_2_);}
	.st1{filter:url(#Adobe_OpacityMaskFilter);}
	.st2{clip-path:url(#SVGID_4_);fill:url(#SVGID_6_);}
	.st3{opacity:9.000000e-02;clip-path:url(#SVGID_4_);mask:url(#SVGID_5_);fill:#4285F4;}
	.st4{filter:url(#Adobe_OpacityMaskFilter_1_);}
	.st5{clip-path:url(#SVGID_4_);fill:url(#SVGID_8_);}
	.st6{opacity:9.000000e-02;clip-path:url(#SVGID_4_);mask:url(#SVGID_7_);fill:#4285F4;}
	.st7{opacity:9.000000e-02;clip-path:url(#SVGID_4_);fill:#4285F4;}
	.st8{filter:url(#Adobe_OpacityMaskFilter_2_);}
	.st9{fill:url(#SVGID_10_);}
	.st10{opacity:0.12;mask:url(#SVGID_9_);fill:#4285F4;}
	.st11{filter:url(#Adobe_OpacityMaskFilter_3_);}
	.st12{opacity:0.68;clip-path:url(#SVGID_2_);fill:url(#SVGID_12_);}
	.st13{opacity:0.12;clip-path:url(#SVGID_2_);mask:url(#SVGID_11_);fill:#4285F4;}
</style>
<g>
	<defs>
		<rect id="SVGID_1_" width="1600" height="1000"/>
	</defs>
	<clipPath id="SVGID_2_">
		<use xlink:href="#SVGID_1_"  style="overflow:visible;"/>
	</clipPath>
	<g class="st0">
		<g>
			<defs>
				<rect id="SVGID_3_" width="1600" height="1000"/>
			</defs>
			<clipPath id="SVGID_4_">
				<use xlink:href="#SVGID_3_"  style="overflow:visible;"/>
			</clipPath>
			<defs>
				<filter id="Adobe_OpacityMaskFilter" filterUnits="userSpaceOnUse" x="1207.3" y="-388" width="900.4" height="962.4">
					<feColorMatrix  type="matrix" values="1 0 0 0 0  0 1 0 0 0  0 0 1 0 0  0 0 0 1 0"/>
				</filter>
			</defs>
			<mask maskUnits="userSpaceOnUse" x="1207.3" y="-388" width="900.4" height="962.4" id="SVGID_5_">
				<g class="st1">
					<linearGradient id="SVGID_6_" gradientUnits="userSpaceOnUse" x1="1387.6224" y1="53.5435" x2="1218.131" y2="299.5312">
						<stop  offset="0" style="stop-color:#FFFFFF"/>
						<stop  offset="0.6075" style="stop-color:#797778"/>
						<stop  offset="1" style="stop-color:#000000"/>
					</linearGradient>
					<rect x="580.3" y="-617.8" class="st2" width="1719.2" height="1191.1"/>
				</g>
			</mask>
			<path class="st3" d="M1655.7-388c0,0-182,128-236,280s-40,162-122,304s-132,106-44,182s276,192,310,196s126-24,160-28
				s190-102,190-102l182-350.8l12-229.2l-110-224.2L1655.7-388z"/>
			<defs>
				<filter id="Adobe_OpacityMaskFilter_1_" filterUnits="userSpaceOnUse" x="-256.2" y="728.5" width="744.8" height="966.7">
					<feColorMatrix  type="matrix" values="1 0 0 0 0  0 1 0 0 0  0 0 1 0 0  0 0 0 1 0"/>
				</filter>
			</defs>
			<mask maskUnits="userSpaceOnUse" x="-256.2" y="728.5" width="744.8" height="966.7" id="SVGID_7_">
				<g class="st4">
					<linearGradient id="SVGID_8_" gradientUnits="userSpaceOnUse" x1="268.4323" y1="731.5818" x2="287.5538" y2="866.5571">
						<stop  offset="0" style="stop-color:#FFFFFF"/>
						<stop  offset="0.6075" style="stop-color:#797778"/>
						<stop  offset="1" style="stop-color:#000000"/>
					</linearGradient>
					<rect x="-300.2" y="422" class="st5" width="1192" height="1006"/>
				</g>
			</mask>
			<path class="st6" d="M-256.2,1020.2l621-283.4c78.1-35.6,155.3,51.2,110.7,124.6l-506.3,833.9"/>
			<circle class="st7" cx="1254.4" cy="83.5" r="40.7"/>
			<circle class="st7" cx="565.8" cy="871.7" r="31.2"/>
		</g>
		<defs>
			<filter id="Adobe_OpacityMaskFilter_2_" filterUnits="userSpaceOnUse" x="1097.8" y="552" width="625" height="625">
				<feColorMatrix  type="matrix" values="1 0 0 0 0  0 1 0 0 0  0 0 1 0 0  0 0 0 1 0"/>
			</filter>
		</defs>
		<mask maskUnits="userSpaceOnUse" x="1097.8" y="552" width="625" height="625" id="SVGID_9_">
			<g class="st8">
				<linearGradient id="SVGID_10_" gradientUnits="userSpaceOnUse" x1="1130.415" y1="480.5569" x2="1320.415" y2="734.5568">
					<stop  offset="0" style="stop-color:#FFFFFF"/>
					<stop  offset="0.6075" style="stop-color:#797778"/>
					<stop  offset="1" style="stop-color:#000000"/>
				</linearGradient>
				<ellipse class="st9" cx="1382.8" cy="818" rx="529" ry="424"/>
			</g>
		</mask>
		<circle class="st10" cx="1410.3" cy="864.5" r="312.5"/>
	</g>
	<defs>
		<filter id="Adobe_OpacityMaskFilter_3_" filterUnits="userSpaceOnUse" x="-282.2" y="-322" width="921.5" height="921.5">
			<feColorMatrix  type="matrix" values="1 0 0 0 0  0 1 0 0 0  0 0 1 0 0  0 0 0 1 0"/>
		</filter>
	</defs>
	<mask maskUnits="userSpaceOnUse" x="-282.2" y="-322" width="921.5" height="921.5" id="SVGID_11_">
		<g class="st11">
			<linearGradient id="SVGID_12_" gradientUnits="userSpaceOnUse" x1="753.2446" y1="504.1306" x2="274.0562" y2="197.5606">
				<stop  offset="0.5" style="stop-color:#FFFFFF"/>
				<stop  offset="1" style="stop-color:#000000"/>
			</linearGradient>
			<rect x="-380.2" y="-372" class="st12" width="1116" height="1016"/>
		</g>
	</mask>
	<circle class="st13" cx="178.6" cy="138.8" r="460.8"/>
</g>
</svg>
