<svg id="b550061d-3617-488b-8ed4-6461a933b3fd" data-name="Calque 1" xmlns="http://www.w3.org/2000/svg" viewBox="0 0 203.25 55.29"><defs><style>.\34 593d3ed-a288-4bb4-adac-91274a96a01f{fill:#0f83c0;}.\38 9042976-979f-41e4-bc96-a430ab0f0dd5{fill:#36344a;}</style></defs><title>Logo-Spondei</title><path class="4593d3ed-a288-4bb4-adac-91274a96a01f" d="M20.25,28.52a8.42,8.42,0,0,1-8.45-8.28H1.9c0,9.83,8.21,17.81,18.35,17.86Z" transform="translate(-1.9 -0.88)"/><path class="4593d3ed-a288-4bb4-adac-91274a96a01f" d="M20.25,46.59a8.42,8.42,0,0,1-8.45-8.28H1.9c0,9.84,8.21,17.81,18.35,17.87Z" transform="translate(-1.9 -0.88)"/><path class="4593d3ed-a288-4bb4-adac-91274a96a01f" d="M20.24,28.54h.11a8.44,8.44,0,0,1,8.56,8.29v.06H38.8v-.06C38.8,27,30.54,19,20.35,19h-.11Z" transform="translate(-1.9 -0.88)"/><path class="4593d3ed-a288-4bb4-adac-91274a96a01f" d="M20.24,10.47h.11a8.44,8.44,0,0,1,8.56,8.29v.06H38.8v-.06C38.8,8.88,30.54.88,20.35.88h-.11Z" transform="translate(-1.9 -0.88)"/><path class="89042976-979f-41e4-bc96-a430ab0f0dd5" d="M70.17,20.07A6,6,0,0,0,68.86,19,12.18,12.18,0,0,0,67,18a11.89,11.89,0,0,0-2.23-.69A11.45,11.45,0,0,0,62.27,17q-3.39,0-5,1.27a4.21,4.21,0,0,0-1.57,3.48,3.87,3.87,0,0,0,.45,2,3.71,3.71,0,0,0,1.41,1.33A10.6,10.6,0,0,0,60,26c1,.28,2.09.56,3.4.86A36.15,36.15,0,0,1,67.45,28a11.91,11.91,0,0,1,3.11,1.57,6.37,6.37,0,0,1,2,2.3,7.34,7.34,0,0,1,.67,3.31,7.53,7.53,0,0,1-.82,3.62,7.18,7.18,0,0,1-2.23,2.54,9.54,9.54,0,0,1-3.33,1.47,17.31,17.31,0,0,1-4.18.48,19.16,19.16,0,0,1-6.36-1,17.62,17.62,0,0,1-5.47-3.05l1.76-3.11a9.68,9.68,0,0,0,1.7,1.39,13.64,13.64,0,0,0,2.38,1.25,17.09,17.09,0,0,0,2.86.9,14.69,14.69,0,0,0,3.21.35,8.85,8.85,0,0,0,4.83-1.11,4.09,4.09,0,0,0,1.17-5.38,4.71,4.71,0,0,0-1.62-1.45A12.23,12.23,0,0,0,64.46,31c-1-.32-2.24-.64-3.58-1A35,35,0,0,1,57,28.87a10.52,10.52,0,0,1-2.8-1.48,5.57,5.57,0,0,1-1.7-2.08,7,7,0,0,1-.57-2.95,8.27,8.27,0,0,1,.78-3.68A7.73,7.73,0,0,1,54.87,16a9.52,9.52,0,0,1,3.31-1.65,16,16,0,0,1,9.5.35,14.77,14.77,0,0,1,4.21,2.41Z" transform="translate(-1.9 -0.88)"/><path class="89042976-979f-41e4-bc96-a430ab0f0dd5" d="M89,43.44a8.48,8.48,0,0,1-4.69-1.31,9.88,9.88,0,0,1-3.21-3.32V51.75h-3.6V21.66h3.19v4A10,10,0,0,1,84,22.5a8.62,8.62,0,0,1,4.48-1.2,9.11,9.11,0,0,1,4,.9,10.14,10.14,0,0,1,3.19,2.43,11.44,11.44,0,0,1,2.11,3.54,11.86,11.86,0,0,1,.76,4.18,13,13,0,0,1-.7,4.31,10.76,10.76,0,0,1-2,3.52,9.61,9.61,0,0,1-3,2.38A8.68,8.68,0,0,1,89,43.44Zm-1.11-3.11a6.13,6.13,0,0,0,2.89-.68A7,7,0,0,0,93,37.85a8.08,8.08,0,0,0,1.41-2.56,8.89,8.89,0,0,0,.49-2.94,8.42,8.42,0,0,0-2.12-5.59A7.43,7.43,0,0,0,90.41,25a6.63,6.63,0,0,0-2.88-.63,6,6,0,0,0-2,.38,9.17,9.17,0,0,0-2,1,7,7,0,0,0-1.6,1.51,4.67,4.67,0,0,0-.88,1.86v6.1a9.2,9.2,0,0,0,1.15,2,8,8,0,0,0,1.59,1.59,7.78,7.78,0,0,0,1.93,1.07A5.9,5.9,0,0,0,87.85,40.33Z" transform="translate(-1.9 -0.88)"/><path class="89042976-979f-41e4-bc96-a430ab0f0dd5" d="M112.29,43.44a10.47,10.47,0,0,1-7.8-3.32,10.89,10.89,0,0,1-2.19-3.52,11.75,11.75,0,0,1,0-8.47,11.11,11.11,0,0,1,2.21-3.52,10.55,10.55,0,0,1,3.4-2.41,10.43,10.43,0,0,1,4.36-.9,10.6,10.6,0,0,1,7.8,3.31,11.29,11.29,0,0,1,2.21,3.52,11.47,11.47,0,0,1,.79,4.26,11.69,11.69,0,0,1-.77,4.21,10.77,10.77,0,0,1-2.21,3.52,10.88,10.88,0,0,1-3.42,2.42A10.55,10.55,0,0,1,112.29,43.44Zm-7.08-11a8.55,8.55,0,0,0,.55,3.11,8.07,8.07,0,0,0,1.51,2.5,7.26,7.26,0,0,0,2.26,1.67,6.45,6.45,0,0,0,5.52,0,7.09,7.09,0,0,0,2.27-1.7,7.81,7.81,0,0,0,1.54-2.53,8.69,8.69,0,0,0,.55-3.13,8.55,8.55,0,0,0-.55-3.09,7.86,7.86,0,0,0-1.54-2.54,7.24,7.24,0,0,0-2.27-1.7,6.33,6.33,0,0,0-2.76-.61,6.21,6.21,0,0,0-2.76.63,7.42,7.42,0,0,0-2.26,1.72,8.15,8.15,0,0,0-1.51,2.54A8.69,8.69,0,0,0,105.21,32.43Z" transform="translate(-1.9 -0.88)"/><path class="89042976-979f-41e4-bc96-a430ab0f0dd5" d="M146,43h-3.6v-12a9.29,9.29,0,0,0-1-5,3.57,3.57,0,0,0-3.17-1.55A6,6,0,0,0,136,25a8.76,8.76,0,0,0-2.09,1.16,8,8,0,0,0-1.72,1.77,7.36,7.36,0,0,0-1.1,2.25V43h-3.61V21.66h3.28v4.59a9.32,9.32,0,0,1,3.66-3.6,10.47,10.47,0,0,1,5.22-1.35,6.31,6.31,0,0,1,3.07.67,5.2,5.2,0,0,1,2,1.88,8.61,8.61,0,0,1,1.05,2.85,19.78,19.78,0,0,1,.3,3.56Z" transform="translate(-1.9 -0.88)"/><path class="89042976-979f-41e4-bc96-a430ab0f0dd5" d="M160.42,43.44a9.35,9.35,0,0,1-4.09-.9,10.23,10.23,0,0,1-3.24-2.42A11,11,0,0,1,151,36.6a11.68,11.68,0,0,1-.76-4.21,12.69,12.69,0,0,1,.72-4.28,11,11,0,0,1,2-3.54A9.41,9.41,0,0,1,156,22.18a8.67,8.67,0,0,1,3.91-.88,8.1,8.1,0,0,1,4.6,1.35,10.67,10.67,0,0,1,3.22,3.27V13.15h3.6V38.61c0,.84.38,1.28,1.15,1.31V43l-.93.12a5.12,5.12,0,0,1-.67,0,2.72,2.72,0,0,1-1.86-.71,2.15,2.15,0,0,1-.8-1.66V39a9.23,9.23,0,0,1-7.82,4.42Zm.86-3.11a6.24,6.24,0,0,0,2-.37,8.31,8.31,0,0,0,2-1,7.55,7.55,0,0,0,1.6-1.54,4.67,4.67,0,0,0,.88-1.86V29.4a6.89,6.89,0,0,0-1.11-1.94,8.37,8.37,0,0,0-1.66-1.6,8,8,0,0,0-2-1.07,6.22,6.22,0,0,0-5,.29,7,7,0,0,0-2.21,1.8,7.88,7.88,0,0,0-1.41,2.58,9.17,9.17,0,0,0-.5,3,8.11,8.11,0,0,0,.58,3A7.87,7.87,0,0,0,156.08,38a7.6,7.6,0,0,0,2.31,1.7A6.54,6.54,0,0,0,161.28,40.33Z" transform="translate(-1.9 -0.88)"/><path class="89042976-979f-41e4-bc96-a430ab0f0dd5" d="M186.82,43.44a11,11,0,0,1-4.42-.88,10.54,10.54,0,0,1-3.44-2.4,11,11,0,0,1-2.23-3.54,11.77,11.77,0,0,1,0-8.53A10.71,10.71,0,0,1,179,24.57a10.55,10.55,0,0,1,3.46-2.39,10.84,10.84,0,0,1,4.42-.88,10.51,10.51,0,0,1,7.78,3.29,10.88,10.88,0,0,1,2.15,3.48,11.51,11.51,0,0,1,.75,4.11c0,.3,0,.58,0,.82a3.3,3.3,0,0,1-.06.57H179.74a8.2,8.2,0,0,0,.74,2.91,7.62,7.62,0,0,0,1.59,2.25,7.33,7.33,0,0,0,2.23,1.47,6.56,6.56,0,0,0,2.64.54,7,7,0,0,0,1.93-.27,8.79,8.79,0,0,0,1.76-.72,6,6,0,0,0,1.45-1.1,4.67,4.67,0,0,0,1-1.47l3.11.86a7.73,7.73,0,0,1-1.45,2.16,9.32,9.32,0,0,1-2.13,1.7A10.75,10.75,0,0,1,189.89,43,11.54,11.54,0,0,1,186.82,43.44Zm7.33-12.53a7.91,7.91,0,0,0-.76-2.8,7.47,7.47,0,0,0-1.6-2.19,7.05,7.05,0,0,0-2.23-1.41,7.13,7.13,0,0,0-2.7-.51,7.2,7.2,0,0,0-2.7.51,6.93,6.93,0,0,0-2.23,1.43,7.39,7.39,0,0,0-1.56,2.19,8.13,8.13,0,0,0-.71,2.78Z" transform="translate(-1.9 -0.88)"/><path class="89042976-979f-41e4-bc96-a430ab0f0dd5" d="M201.55,17.65v-4.5h3.61v4.5Zm0,25.38V21.66h3.61V43Z" transform="translate(-1.9 -0.88)"/></svg>