<svg id="_6" data-name="6" xmlns="http://www.w3.org/2000/svg" width="27.1" height="39.957" viewBox="0 0 27.1 39.957">
  <path id="Tracé_1" data-name="Tracé 1" d="M0,13.6c.2,0,.3-.1.5-.1H6.1c.5,0,.7.2.7.7a6.489,6.489,0,0,0,5.6,5.9c1,.2,1,.2,1,1.2v5c0,.7-.1.8-.9.8a13.115,13.115,0,0,1-8.2-3.6A13.319,13.319,0,0,1,0,13.6Z" transform="translate(0 0.025)" fill="#0b83c0"/>
  <path id="Tracé_2" data-name="Tracé 2" d="M0,26.4H6.1c.5,0,.7.2.8.7A6.576,6.576,0,0,0,12.4,33c1.1.2,1.1-.1,1.1,1.3v4.8c0,.8-.1.9-.9.8a13.292,13.292,0,0,1-8.1-3.5A12.874,12.874,0,0,1,0,26.4Z" transform="translate(0 0.025)" fill="#0b83c0"/>
  <path id="Tracé_3" data-name="Tracé 3" d="M23.5,13.5H20.8c-.5,0-.7-.1-.7-.6a6.693,6.693,0,0,0-5.8-6c-.6-.1-.8-.3-.8-1V.7c0-.6.2-.8.8-.7A13.605,13.605,0,0,1,26.7,10.9c.1.6.1,1.2.2,1.8s-.2.8-.7.8Z" transform="translate(0 0.025)" fill="#0b83c0"/>
  <path id="Tracé_4" data-name="Tracé 4" d="M23.6,26.3H20.9c-.4,0-.6-.1-.7-.6a6.5,6.5,0,0,0-5.7-6c-.6-.1-.8-.4-.8-1V13.5c0-.6.2-.8.8-.7A13.605,13.605,0,0,1,26.9,23.7a8.807,8.807,0,0,1,.2,1.7c0,.8,0,.9-.8.9Z" transform="translate(0 0.025)" fill="#0b83c0"/>
</svg>
